<?xml version="1.0" encoding="iso-8859-1"?>
<!-- Uploaded to: SVG Repo, www.svgrepo.com, Generator: SVG Repo Mixer Tools -->
<svg fill="#4CAF50" height="800px" width="800px" version="1.1" id="Layer_1" xmlns="http://www.w3.org/2000/svg" xmlns:xlink="http://www.w3.org/1999/xlink" 
	 viewBox="0 0 455 455" xml:space="preserve">
<g>
	<path style="fill-rule:evenodd;clip-rule:evenodd;" d="M267.986,121.184c-4.657,0-8.406,3.665-8.406,8.339
		c0,4.657,3.749,8.406,8.406,8.406c4.674,0,8.407-3.749,8.407-8.406C276.392,124.849,272.66,121.184,267.986,121.184z"/>
	<path style="fill-rule:evenodd;clip-rule:evenodd;" d="M187.013,121.184c-4.657,0-8.406,3.665-8.406,8.339
		c0,4.657,3.749,8.406,8.406,8.406c4.657,0,8.407-3.749,8.407-8.406C195.42,124.849,191.671,121.184,187.013,121.184z"/>
	<path style="fill-rule:evenodd;clip-rule:evenodd;" d="M0,0v455h455V0H0z M131.513,273.276c0,10.323-8.406,18.797-18.78,18.797
		h-0.79c-10.374,0-18.78-8.474-18.78-18.797v-81.762c0-10.307,8.407-18.78,18.78-18.78h0.79c10.307,0,18.78,8.474,18.78,18.78
		V273.276z M314.491,304.801c0,9.533-7.818,17.217-17.267,17.217h-18.461v44.202c0,10.307-8.407,18.781-18.781,18.781h-0.79
		c-10.307,0-18.781-8.407-18.781-18.781v-44.202h-25.808v44.202c0,10.307-8.407,18.781-18.797,18.781h-0.773
		c-10.391,0-18.797-8.407-18.797-18.781v-44.202h-18.444c-9.533,0-17.284-7.684-17.284-17.217V175.76h173.983V304.801z
		 M314.828,167.942H140.189c-0.135-1.715-0.269-3.413-0.269-5.128c0-27.977,17.872-52.407,44.269-65.353l-14.644-22.647
		c-0.925-1.379-0.521-3.346,0.925-4.271c1.446-0.992,3.413-0.588,4.321,0.925l15.182,23.37c11.366-4.657,24.093-7.28,37.561-7.28
		c13.4,0,26.144,2.623,37.51,7.28l15.233-23.37c0.925-1.513,2.824-1.917,4.271-0.925c1.446,0.925,1.832,2.892,0.925,4.271
		L270.81,97.46c26.414,12.946,44.27,37.375,44.27,65.353C315.08,164.528,314.945,166.226,314.828,167.942z M361.838,273.276
		c0,10.323-8.407,18.797-18.78,18.797h-0.791c-10.306,0-18.78-8.474-18.78-18.797v-81.762c0-10.307,8.406-18.78,18.78-18.78h0.791
		c10.323,0,18.78,8.474,18.78,18.78V273.276z"/>
</g>
</svg>