<?xml version="1.0" standalone="no"?>
<!DOCTYPE svg PUBLIC "-//W3C//DTD SVG 20010904//EN"
 "http://www.w3.org/TR/2001/REC-SVG-20010904/DTD/svg10.dtd">
<svg version="1.0" xmlns="http://www.w3.org/2000/svg"
 width="1259.000000pt" height="1280.000000pt" viewBox="0 0 1259.000000 1280.000000"
 preserveAspectRatio="xMidYMid meet">
<g transform="translate(0.000000,1280.000000) scale(0.100000,-0.100000)"
fill="#000000" stroke="none">
<path d="M4695 12776 c-38 -12 -88 -34 -110 -48 -60 -38 -133 -121 -163 -186
-24 -51 -27 -69 -27 -167 0 -105 2 -114 33 -177 18 -37 53 -87 77 -112 l45
-44 0 -4435 c0 -4035 -1 -4435 -16 -4441 -9 -3 -996 -6 -2195 -6 -1198 0
-2179 -3 -2179 -6 0 -7 181 -221 300 -354 494 -555 1022 -1075 1504 -1484 763
-646 1477 -1069 2070 -1226 282 -75 672 -106 996 -80 69 5 215 17 325 26 1802
140 4066 1037 6298 2496 303 198 749 507 877 608 25 19 2 20 -3707 20 -3382 0
-3733 1 -3747 16 -15 14 -16 425 -14 4443 l3 4428 52 56 c63 70 94 145 101
248 13 206 -112 370 -330 433 -73 21 -107 19 -193 -8z" fill="#3498db"/>
<path d="M5420 12105 c0 -3 22 -121 50 -262 365 -1900 541 -3197 591 -4363 13
-297 7 -956 -11 -1195 -66 -915 -236 -1605 -546 -2211 l-82 -161 3111 -6
c1710 -4 3112 -6 3114 -3 2 2 -34 91 -81 197 -1204 2754 -2937 5128 -5337
7310 -320 291 -789 699 -803 699 -3 0 -6 -2 -6 -5z" fill="#3498db"/>
<path d="M4166 9061 c-129 -520 -286 -941 -515 -1386 -310 -601 -674 -1094
-1216 -1644 -346 -351 -601 -579 -1340 -1197 -460 -384 -691 -584 -919 -793
l-148 -136 2093 -3 c1151 -1 2094 -1 2096 1 2 2 2 1208 1 2679 l-3 2675 -49
-196z" fill="#3498db"/>
</g>
</svg>
