<?xml version="1.0" standalone="no"?>
<!DOCTYPE svg PUBLIC "-//W3C//DTD SVG 20010904//EN"
 "http://www.w3.org/TR/2001/REC-SVG-20010904/DTD/svg10.dtd">
<svg version="1.0" xmlns="http://www.w3.org/2000/svg"
 width="1280.000000pt" height="910.000000pt" viewBox="0 0 1280.000000 910.000000"
 preserveAspectRatio="xMidYMid meet" style="background-color: white;">
<g transform="translate(0.000000,910.000000) scale(0.100000,-0.100000)"
fill="#000000" stroke="none">
<path d="M397 9087 c-3 -8 -33 -24 -66 -36 -150 -54 -258 -165 -304 -312 -15
-46 -27 -95 -27 -108 0 -42 41 -164 72 -215 29 -48 30 -51 14 -75 -29 -44 -54
-104 -72 -173 -17 -65 -17 -71 0 -135 9 -38 33 -96 51 -130 l35 -63 -35 -67
c-19 -38 -42 -98 -52 -135 -16 -65 -16 -71 1 -135 9 -38 33 -96 52 -131 l34
-62 -30 -54 c-37 -66 -73 -190 -67 -231 11 -69 30 -124 62 -183 l35 -62 -30
-54 c-30 -53 -70 -176 -70 -216 0 -36 50 -177 77 -217 l25 -37 -32 -59 c-37
-67 -70 -168 -70 -212 1 -43 45 -172 76 -219 23 -34 25 -42 14 -60 -32 -51
-60 -116 -76 -178 -17 -65 -17 -71 0 -135 18 -71 43 -130 72 -174 16 -25 16
-27 -11 -67 -28 -43 -75 -180 -75 -221 0 -41 40 -161 71 -211 l30 -48 -35 -69
c-20 -37 -43 -98 -53 -135 -16 -65 -16 -71 1 -135 9 -38 33 -96 52 -131 l34
-62 -30 -54 c-37 -66 -73 -190 -67 -231 11 -69 30 -124 62 -183 l35 -62 -30
-54 c-38 -67 -73 -191 -66 -231 14 -78 21 -100 56 -171 l39 -76 -34 -61 c-32
-60 -65 -167 -65 -210 1 -36 48 -168 76 -210 l26 -39 -35 -66 c-20 -37 -43
-97 -53 -135 -17 -64 -17 -70 0 -135 18 -70 43 -129 72 -173 16 -25 16 -27
-11 -67 -28 -43 -75 -180 -75 -221 0 -42 41 -164 72 -215 29 -48 30 -51 14
-75 -29 -44 -54 -104 -72 -173 -17 -65 -17 -71 0 -135 9 -38 33 -96 52 -131
l35 -64 -30 -51 c-38 -67 -74 -191 -68 -231 20 -124 68 -216 153 -296 59 -55
154 -110 217 -125 27 -7 27 -7 27 47 0 46 -3 54 -19 55 -56 4 -166 105 -208
191 -24 48 -28 70 -28 137 0 89 26 175 52 175 9 0 31 -9 49 -21 18 -11 60 -31
93 -43 l59 -24 5 40 c7 51 1 65 -27 72 -28 7 -106 63 -106 76 0 15 90 70 115
70 12 0 27 6 34 13 8 8 48 12 125 12 111 0 113 0 192 -40 l79 -40 5 -75 c8
-121 60 -170 177 -170 49 0 62 4 83 27 46 48 60 77 60 125 0 60 -11 89 -52
132 l-33 34 -85 -2 c-77 -3 -89 -1 -130 23 -112 66 -261 99 -363 80 -32 -5
-62 -8 -65 -5 -3 3 -10 2 -16 -3 -6 -5 -29 -14 -51 -21 -22 -7 -64 -25 -93
-42 -43 -23 -57 -27 -68 -17 -25 21 -47 117 -41 183 5 68 33 146 51 146 7 0
37 -13 68 -30 30 -16 73 -36 96 -44 l42 -15 0 52 c0 52 0 52 -44 70 -24 10
-54 29 -67 43 l-24 25 25 19 c14 11 43 27 65 36 22 9 51 21 64 28 13 6 72 11
130 11 95 0 111 -3 161 -27 94 -47 107 -63 112 -138 7 -114 75 -174 186 -163
46 5 57 11 87 46 98 114 30 277 -115 277 -21 0 -50 -4 -63 -9 -18 -7 -31 -5
-53 10 -111 76 -229 106 -376 95 -89 -6 -188 -36 -255 -77 -41 -26 -55 -17
-77 48 -20 59 -20 135 -1 200 22 73 35 81 87 50 42 -23 159 -71 162 -65 1 2 0
26 -2 53 -3 49 -5 51 -46 68 -24 10 -53 27 -65 38 -22 20 -22 22 -4 41 23 26
60 45 135 69 105 33 230 21 326 -33 65 -36 72 -46 72 -108 0 -88 19 -123 84
-155 46 -22 62 -25 103 -19 84 12 133 71 133 161 0 51 -16 87 -59 127 -27 26
-39 30 -89 30 -31 1 -67 -3 -78 -7 -17 -6 -33 1 -68 28 -25 19 -52 35 -59 35
-6 0 -24 6 -38 14 -44 23 -183 39 -269 32 -79 -7 -170 -36 -237 -76 -19 -11
-40 -20 -48 -20 -20 0 -55 103 -55 164 0 59 23 148 43 165 10 8 33 1 93 -29
43 -21 89 -42 101 -45 22 -6 23 -4 23 49 0 47 -3 56 -17 56 -27 0 -115 59
-110 73 5 17 78 66 102 70 11 2 31 9 45 17 17 10 58 14 125 15 93 0 105 -2
170 -33 98 -48 103 -53 103 -121 0 -70 19 -110 69 -148 32 -24 45 -28 100 -27
56 1 67 4 94 30 81 77 83 172 7 251 -35 37 -96 50 -157 33 -36 -9 -43 -8 -78
16 -170 116 -413 123 -602 18 -24 -13 -49 -24 -55 -24 -21 0 -48 73 -54 141
-5 68 17 168 42 188 7 6 39 -4 91 -29 127 -62 125 -62 125 4 0 47 -3 56 -18
56 -26 0 -114 58 -110 72 13 37 126 84 226 93 76 7 196 -7 219 -26 8 -7 21
-14 29 -15 7 -1 27 -12 44 -24 28 -20 30 -26 30 -81 0 -73 16 -106 75 -154 42
-35 48 -37 100 -33 30 3 55 1 55 -4 0 -4 5 -8 11 -8 6 0 9 7 5 15 -3 9 7 29
23 48 42 48 51 70 51 124 0 47 -14 79 -57 129 -22 26 -91 37 -147 24 -35 -8
-47 -4 -124 38 -48 25 -93 47 -102 48 -114 16 -182 21 -233 17 -67 -6 -175
-40 -236 -75 -21 -12 -44 -19 -53 -16 -8 3 -23 32 -32 63 -23 71 -18 162 12
228 l21 47 78 -39 c43 -21 90 -42 104 -45 24 -5 27 -2 32 28 7 44 -1 76 -20
76 -20 0 -87 35 -103 54 -17 22 5 47 63 71 23 9 58 24 79 32 71 29 268 14 299
-23 6 -8 18 -14 26 -14 8 0 28 -9 44 -21 28 -20 30 -25 28 -85 -2 -55 1 -67
26 -99 44 -58 80 -76 150 -73 64 2 67 4 124 80 26 34 27 41 20 92 -7 54 -27
93 -66 128 -21 20 -97 26 -151 14 -27 -6 -41 -2 -80 22 -81 51 -107 60 -271
93 -27 6 -58 5 -81 -1 -21 -6 -50 -12 -66 -14 -39 -5 -97 -27 -172 -65 l-62
-31 -14 22 c-40 62 -45 190 -11 276 19 47 33 51 81 21 18 -11 61 -31 94 -44
l60 -24 0 58 c0 51 -2 57 -22 58 -25 2 -99 52 -105 70 -5 14 82 73 107 73 9 0
31 7 49 16 51 25 211 16 276 -16 110 -54 114 -58 115 -123 0 -70 21 -119 64
-150 24 -17 46 -22 101 -23 69 -2 70 -2 107 38 66 70 65 176 -1 240 l-38 37
-84 -3 c-67 -3 -90 0 -114 14 -79 47 -127 68 -186 79 -64 13 -255 13 -274 0
-5 -3 -28 -12 -50 -19 -22 -7 -64 -25 -93 -42 -43 -23 -57 -27 -68 -17 -25 21
-47 117 -41 183 5 69 33 146 52 146 7 0 33 -12 59 -26 43 -24 148 -67 151 -61
1 1 -1 25 -3 53 -3 47 -6 51 -38 63 -37 13 -94 57 -94 72 0 12 73 57 107 65
15 4 34 12 42 18 8 7 59 11 125 11 105 0 115 -2 176 -32 97 -48 100 -52 100
-116 0 -80 22 -127 72 -156 56 -32 147 -31 188 2 57 44 78 153 41 213 -38 63
-62 79 -121 82 -30 2 -67 -1 -82 -7 -24 -9 -33 -6 -75 28 -27 21 -62 41 -78
45 -126 30 -178 37 -265 34 -53 -2 -100 -7 -105 -10 -6 -3 -28 -11 -50 -18
-22 -7 -64 -25 -93 -42 -42 -23 -57 -27 -68 -17 -20 16 -44 104 -44 159 0 56
24 143 45 160 12 10 23 7 57 -13 24 -13 69 -34 101 -45 l57 -22 0 53 c0 51 -1
53 -35 66 -45 16 -95 58 -89 75 7 19 73 53 144 76 106 34 232 22 325 -30 62
-35 77 -51 72 -80 -8 -39 12 -118 39 -149 35 -42 91 -62 153 -54 66 8 113 56
130 132 10 45 9 57 -8 89 -43 83 -124 120 -202 93 -29 -10 -37 -8 -78 18 -183
116 -393 122 -602 16 -26 -14 -53 -25 -58 -25 -17 0 -51 109 -51 164 0 59 23
148 43 165 10 8 32 1 90 -28 42 -21 88 -41 102 -43 24 -5 25 -3 25 48 0 44 -3
54 -17 54 -24 0 -114 61 -110 74 5 18 99 77 113 72 8 -3 16 -1 19 4 4 6 66 10
140 10 124 0 137 -2 187 -26 83 -41 88 -48 88 -118 0 -75 20 -111 85 -155 68
-46 110 -41 178 19 41 36 57 72 57 128 0 36 -6 58 -25 83 -13 19 -29 44 -34
56 -9 20 -15 21 -107 18 -86 -3 -101 -1 -133 19 -177 110 -418 112 -598 6 -19
-11 -40 -20 -47 -20 -21 0 -48 72 -54 141 -5 69 17 168 43 189 8 7 36 -2 91
-30 115 -57 120 -58 127 -16 7 46 -1 76 -22 76 -26 0 -113 59 -108 73 5 16 77
66 102 70 11 2 33 9 49 16 77 31 215 22 300 -22 91 -46 96 -52 96 -121 0 -49
5 -70 23 -96 39 -58 71 -75 142 -75 57 0 67 4 95 30 44 42 60 76 60 130 0 113
-99 187 -208 154 -36 -10 -43 -9 -69 8 -37 27 -134 76 -153 78 -8 1 -44 8 -80
14 -69 13 -236 6 -246 -10 -3 -5 -12 -9 -21 -9 -9 0 -49 -16 -90 -36 -40 -20
-79 -34 -86 -31 -20 7 -47 102 -47 163 0 52 22 137 42 161 7 9 29 2 86 -26 42
-21 89 -41 105 -45 27 -6 27 -6 27 49 0 46 -3 55 -18 55 -26 0 -114 58 -110
72 11 32 119 82 213 99 77 14 211 -7 236 -38 6 -7 20 -13 31 -13 10 0 21 -7
24 -15 3 -8 14 -17 25 -20 16 -5 19 -16 19 -69 0 -72 22 -115 80 -154 30 -20
45 -23 97 -19 58 3 63 6 97 46 43 51 50 75 44 142 -4 41 -12 57 -42 88 -43 44
-94 57 -163 39 -36 -9 -46 -7 -70 10 -96 67 -195 94 -346 91 -113 -1 -156 -12
-264 -66 -28 -14 -58 -23 -66 -20 -25 9 -50 113 -44 181 6 73 33 146 54 146 9
0 31 -9 49 -21 32 -19 156 -71 159 -66 1 1 -1 27 -4 57 -5 45 -10 56 -26 59
-25 4 -97 52 -102 68 -5 14 82 73 107 73 9 0 31 7 48 16 38 18 169 21 227 5
22 -7 67 -27 100 -45 l60 -33 6 -69 c11 -107 15 -117 70 -148 41 -23 59 -27
110 -24 45 2 63 7 70 20 5 9 17 19 27 22 9 3 23 24 30 46 25 82 9 150 -48 205
-28 27 -31 28 -114 23 -78 -5 -88 -4 -120 19 -20 13 -36 28 -36 33 0 6 -13 10
-28 10 -15 0 -32 4 -37 9 -20 17 -142 33 -240 30 -105 -3 -168 -21 -262 -74
-56 -31 -67 -25 -89 53 -19 66 -15 156 11 220 19 48 30 50 78 22 19 -11 62
-31 96 -45 l61 -24 0 54 c0 47 -3 53 -23 59 -29 7 -107 63 -107 76 0 14 91 70
116 70 11 0 26 6 32 13 9 8 49 12 126 12 111 0 113 0 192 -40 l79 -40 1 -61
c3 -122 54 -177 170 -182 l71 -4 36 42 c69 81 67 167 -6 245 l-32 34 -93 -4
c-50 -1 -95 1 -98 6 -13 21 -143 77 -206 89 -63 11 -242 10 -263 -2 -6 -3 -28
-11 -50 -18 -22 -7 -64 -25 -93 -42 -43 -23 -57 -27 -68 -17 -25 21 -47 117
-41 183 5 68 33 146 51 146 7 0 37 -13 68 -30 30 -16 73 -36 96 -44 l42 -15 0
52 c0 51 -1 53 -35 66 -46 16 -95 58 -89 75 14 38 172 90 269 89 68 0 159 -20
200 -43 68 -38 75 -48 75 -108 0 -62 22 -116 57 -140 14 -9 33 -25 44 -34 21
-20 109 -26 109 -8 0 6 5 10 10 10 6 0 10 -7 10 -15 0 -8 5 -15 11 -15 6 0 8
7 5 16 -4 10 5 29 25 51 63 72 67 140 13 225 l-36 57 -97 -3 c-79 -3 -100 0
-121 14 -95 67 -220 97 -361 87 -92 -7 -139 -21 -231 -67 -71 -36 -79 -33
-104 42 -44 133 19 305 143 391 75 52 139 70 248 71 108 1 169 -17 243 -72 32
-23 33 -27 31 -83 -3 -71 24 -121 86 -157 33 -19 49 -22 95 -17 59 6 98 33
128 90 18 35 17 107 -3 145 -37 71 -123 107 -196 81 -28 -10 -37 -8 -78 17
-25 16 -72 41 -103 56 -32 14 -58 29 -58 31 0 3 2721 4 6048 2 l6047 -2 0
-4535 0 -4535 -6185 -2 c-3401 -2 -6189 -5 -6195 -7 -5 -2 2781 -5 6193 -5
l6202 -1 0 4550 0 4550 -6199 0 c-5151 0 -6200 -2 -6204 -13z"/>
<path d="M1710 8780 c0 -5 5 -10 10 -10 6 0 10 5 10 10 0 6 -4 10 -10 10 -5 0
-10 -4 -10 -10z"/>
<path d="M2370 8780 c0 -5 5 -10 10 -10 6 0 10 5 10 10 0 6 -4 10 -10 10 -5 0
-10 -4 -10 -10z"/>
<path d="M3030 8780 c0 -5 5 -10 10 -10 6 0 10 5 10 10 0 6 -4 10 -10 10 -5 0
-10 -4 -10 -10z"/>
<path d="M3690 8780 c0 -5 5 -10 10 -10 6 0 10 5 10 10 0 6 -4 10 -10 10 -5 0
-10 -4 -10 -10z"/>
<path d="M4350 8780 c0 -5 5 -10 10 -10 6 0 10 5 10 10 0 6 -4 10 -10 10 -5 0
-10 -4 -10 -10z"/>
<path d="M5010 8780 c0 -5 5 -10 10 -10 6 0 10 5 10 10 0 6 -4 10 -10 10 -5 0
-10 -4 -10 -10z"/>
<path d="M8650 8780 c0 -5 5 -10 10 -10 6 0 10 5 10 10 0 6 -4 10 -10 10 -5 0
-10 -4 -10 -10z"/>
<path d="M9310 8780 c0 -5 5 -10 10 -10 6 0 10 5 10 10 0 6 -4 10 -10 10 -5 0
-10 -4 -10 -10z"/>
<path d="M9970 8780 c0 -5 5 -10 10 -10 6 0 10 5 10 10 0 6 -4 10 -10 10 -5 0
-10 -4 -10 -10z"/>
<path d="M10630 8780 c0 -5 5 -10 10 -10 6 0 10 5 10 10 0 6 -4 10 -10 10 -5
0 -10 -4 -10 -10z"/>
<path d="M11290 8780 c0 -5 5 -10 10 -10 6 0 10 5 10 10 0 6 -4 10 -10 10 -5
0 -10 -4 -10 -10z"/>
<path d="M11950 8780 c0 -5 5 -10 10 -10 6 0 10 5 10 10 0 6 -4 10 -10 10 -5
0 -10 -4 -10 -10z"/>
<path d="M12610 8780 c0 -5 5 -10 10 -10 6 0 10 5 10 10 0 6 -4 10 -10 10 -5
0 -10 -4 -10 -10z"/>
<path d="M1710 8120 c0 -5 5 -10 10 -10 6 0 10 5 10 10 0 6 -4 10 -10 10 -5 0
-10 -4 -10 -10z"/>
<path d="M2370 8120 c0 -5 5 -10 10 -10 6 0 10 5 10 10 0 6 -4 10 -10 10 -5 0
-10 -4 -10 -10z"/>
<path d="M3030 8120 c0 -5 5 -10 10 -10 6 0 10 5 10 10 0 6 -4 10 -10 10 -5 0
-10 -4 -10 -10z"/>
<path d="M3690 8120 c0 -5 5 -10 10 -10 6 0 10 5 10 10 0 6 -4 10 -10 10 -5 0
-10 -4 -10 -10z"/>
<path d="M4350 8120 c0 -5 5 -10 10 -10 6 0 10 5 10 10 0 6 -4 10 -10 10 -5 0
-10 -4 -10 -10z"/>
<path d="M5010 8120 c0 -5 5 -10 10 -10 6 0 10 5 10 10 0 6 -4 10 -10 10 -5 0
-10 -4 -10 -10z"/>
<path d="M8650 8120 c0 -5 5 -10 10 -10 6 0 10 5 10 10 0 6 -4 10 -10 10 -5 0
-10 -4 -10 -10z"/>
<path d="M9310 8120 c0 -5 5 -10 10 -10 6 0 10 5 10 10 0 6 -4 10 -10 10 -5 0
-10 -4 -10 -10z"/>
<path d="M9970 8120 c0 -5 5 -10 10 -10 6 0 10 5 10 10 0 6 -4 10 -10 10 -5 0
-10 -4 -10 -10z"/>
<path d="M10630 8120 c0 -5 5 -10 10 -10 6 0 10 5 10 10 0 6 -4 10 -10 10 -5
0 -10 -4 -10 -10z"/>
<path d="M11290 8120 c0 -5 5 -10 10 -10 6 0 10 5 10 10 0 6 -4 10 -10 10 -5
0 -10 -4 -10 -10z"/>
<path d="M11950 8120 c0 -5 5 -10 10 -10 6 0 10 5 10 10 0 6 -4 10 -10 10 -5
0 -10 -4 -10 -10z"/>
<path d="M12610 8120 c0 -5 5 -10 10 -10 6 0 10 5 10 10 0 6 -4 10 -10 10 -5
0 -10 -4 -10 -10z"/>
<path d="M1055 7460 c3 -5 8 -10 11 -10 2 0 4 5 4 10 0 6 -5 10 -11 10 -5 0
-7 -4 -4 -10z"/>
<path d="M1715 7460 c3 -5 8 -10 11 -10 2 0 4 5 4 10 0 6 -5 10 -11 10 -5 0
-7 -4 -4 -10z"/>
<path d="M2375 7460 c3 -5 8 -10 11 -10 2 0 4 5 4 10 0 6 -5 10 -11 10 -5 0
-7 -4 -4 -10z"/>
<path d="M3035 7460 c3 -5 8 -10 11 -10 2 0 4 5 4 10 0 6 -5 10 -11 10 -5 0
-7 -4 -4 -10z"/>
<path d="M3695 7460 c3 -5 8 -10 11 -10 2 0 4 5 4 10 0 6 -5 10 -11 10 -5 0
-7 -4 -4 -10z"/>
<path d="M4355 7460 c3 -5 8 -10 11 -10 2 0 4 5 4 10 0 6 -5 10 -11 10 -5 0
-7 -4 -4 -10z"/>
<path d="M5015 7460 c3 -5 8 -10 11 -10 2 0 4 5 4 10 0 6 -5 10 -11 10 -5 0
-7 -4 -4 -10z"/>
<path d="M8655 7460 c3 -5 8 -10 11 -10 2 0 4 5 4 10 0 6 -5 10 -11 10 -5 0
-7 -4 -4 -10z"/>
<path d="M9315 7460 c3 -5 8 -10 11 -10 2 0 4 5 4 10 0 6 -5 10 -11 10 -5 0
-7 -4 -4 -10z"/>
<path d="M9975 7460 c3 -5 8 -10 11 -10 2 0 4 5 4 10 0 6 -5 10 -11 10 -5 0
-7 -4 -4 -10z"/>
<path d="M10635 7460 c3 -5 8 -10 11 -10 2 0 4 5 4 10 0 6 -5 10 -11 10 -5 0
-7 -4 -4 -10z"/>
<path d="M11295 7460 c3 -5 8 -10 11 -10 2 0 4 5 4 10 0 6 -5 10 -11 10 -5 0
-7 -4 -4 -10z"/>
<path d="M11955 7460 c3 -5 8 -10 11 -10 2 0 4 5 4 10 0 6 -5 10 -11 10 -5 0
-7 -4 -4 -10z"/>
<path d="M12615 7460 c3 -5 8 -10 11 -10 2 0 4 5 4 10 0 6 -5 10 -11 10 -5 0
-7 -4 -4 -10z"/>
<path d="M1715 7130 c-3 -5 -1 -10 4 -10 6 0 11 5 11 10 0 6 -2 10 -4 10 -3 0
-8 -4 -11 -10z"/>
<path d="M2375 7130 c-3 -5 -1 -10 4 -10 6 0 11 5 11 10 0 6 -2 10 -4 10 -3 0
-8 -4 -11 -10z"/>
<path d="M3035 7130 c-3 -5 -1 -10 4 -10 6 0 11 5 11 10 0 6 -2 10 -4 10 -3 0
-8 -4 -11 -10z"/>
<path d="M3695 7130 c-3 -5 -1 -10 4 -10 6 0 11 5 11 10 0 6 -2 10 -4 10 -3 0
-8 -4 -11 -10z"/>
<path d="M4355 7130 c-3 -5 -1 -10 4 -10 6 0 11 5 11 10 0 6 -2 10 -4 10 -3 0
-8 -4 -11 -10z"/>
<path d="M5015 7130 c-3 -5 -1 -10 4 -10 6 0 11 5 11 10 0 6 -2 10 -4 10 -3 0
-8 -4 -11 -10z"/>
<path d="M8655 7130 c-3 -5 -1 -10 4 -10 6 0 11 5 11 10 0 6 -2 10 -4 10 -3 0
-8 -4 -11 -10z"/>
<path d="M9315 7130 c-3 -5 -1 -10 4 -10 6 0 11 5 11 10 0 6 -2 10 -4 10 -3 0
-8 -4 -11 -10z"/>
<path d="M9975 7130 c-3 -5 -1 -10 4 -10 6 0 11 5 11 10 0 6 -2 10 -4 10 -3 0
-8 -4 -11 -10z"/>
<path d="M10635 7130 c-3 -5 -1 -10 4 -10 6 0 11 5 11 10 0 6 -2 10 -4 10 -3
0 -8 -4 -11 -10z"/>
<path d="M11295 7130 c-3 -5 -1 -10 4 -10 6 0 11 5 11 10 0 6 -2 10 -4 10 -3
0 -8 -4 -11 -10z"/>
<path d="M11955 7130 c-3 -5 -1 -10 4 -10 6 0 11 5 11 10 0 6 -2 10 -4 10 -3
0 -8 -4 -11 -10z"/>
<path d="M12615 7130 c-3 -5 -1 -10 4 -10 6 0 11 5 11 10 0 6 -2 10 -4 10 -3
0 -8 -4 -11 -10z"/>
<path d="M1050 6470 c0 -5 5 -10 10 -10 6 0 10 5 10 10 0 6 -4 10 -10 10 -5 0
-10 -4 -10 -10z"/>
<path d="M1710 6470 c0 -5 5 -10 10 -10 6 0 10 5 10 10 0 6 -4 10 -10 10 -5 0
-10 -4 -10 -10z"/>
<path d="M2370 6470 c0 -5 5 -10 10 -10 6 0 10 5 10 10 0 6 -4 10 -10 10 -5 0
-10 -4 -10 -10z"/>
<path d="M3030 6470 c0 -5 5 -10 10 -10 6 0 10 5 10 10 0 6 -4 10 -10 10 -5 0
-10 -4 -10 -10z"/>
<path d="M3690 6470 c0 -5 5 -10 10 -10 6 0 10 5 10 10 0 6 -4 10 -10 10 -5 0
-10 -4 -10 -10z"/>
<path d="M4350 6470 c0 -5 5 -10 10 -10 6 0 10 5 10 10 0 6 -4 10 -10 10 -5 0
-10 -4 -10 -10z"/>
<path d="M5010 6470 c0 -5 5 -10 10 -10 6 0 10 5 10 10 0 6 -4 10 -10 10 -5 0
-10 -4 -10 -10z"/>
<path d="M8650 6470 c0 -5 5 -10 10 -10 6 0 10 5 10 10 0 6 -4 10 -10 10 -5 0
-10 -4 -10 -10z"/>
<path d="M9310 6470 c0 -5 5 -10 10 -10 6 0 10 5 10 10 0 6 -4 10 -10 10 -5 0
-10 -4 -10 -10z"/>
<path d="M9970 6470 c0 -5 5 -10 10 -10 6 0 10 5 10 10 0 6 -4 10 -10 10 -5 0
-10 -4 -10 -10z"/>
<path d="M10630 6470 c0 -5 5 -10 10 -10 6 0 10 5 10 10 0 6 -4 10 -10 10 -5
0 -10 -4 -10 -10z"/>
<path d="M11290 6470 c0 -5 5 -10 10 -10 6 0 10 5 10 10 0 6 -4 10 -10 10 -5
0 -10 -4 -10 -10z"/>
<path d="M11950 6470 c0 -5 5 -10 10 -10 6 0 10 5 10 10 0 6 -4 10 -10 10 -5
0 -10 -4 -10 -10z"/>
<path d="M12610 6470 c0 -5 5 -10 10 -10 6 0 10 5 10 10 0 6 -4 10 -10 10 -5
0 -10 -4 -10 -10z"/>
<path d="M1710 5810 c0 -5 5 -10 10 -10 6 0 10 5 10 10 0 6 -4 10 -10 10 -5 0
-10 -4 -10 -10z"/>
<path d="M2370 5810 c0 -5 5 -10 10 -10 6 0 10 5 10 10 0 6 -4 10 -10 10 -5 0
-10 -4 -10 -10z"/>
<path d="M3030 5810 c0 -5 5 -10 10 -10 6 0 10 5 10 10 0 6 -4 10 -10 10 -5 0
-10 -4 -10 -10z"/>
<path d="M3690 5810 c0 -5 5 -10 10 -10 6 0 10 5 10 10 0 6 -4 10 -10 10 -5 0
-10 -4 -10 -10z"/>
<path d="M4350 5810 c0 -5 5 -10 10 -10 6 0 10 5 10 10 0 6 -4 10 -10 10 -5 0
-10 -4 -10 -10z"/>
<path d="M5010 5810 c0 -5 5 -10 10 -10 6 0 10 5 10 10 0 6 -4 10 -10 10 -5 0
-10 -4 -10 -10z"/>
<path d="M8650 5810 c0 -5 5 -10 10 -10 6 0 10 5 10 10 0 6 -4 10 -10 10 -5 0
-10 -4 -10 -10z"/>
<path d="M9310 5810 c0 -5 5 -10 10 -10 6 0 10 5 10 10 0 6 -4 10 -10 10 -5 0
-10 -4 -10 -10z"/>
<path d="M9970 5810 c0 -5 5 -10 10 -10 6 0 10 5 10 10 0 6 -4 10 -10 10 -5 0
-10 -4 -10 -10z"/>
<path d="M10630 5810 c0 -5 5 -10 10 -10 6 0 10 5 10 10 0 6 -4 10 -10 10 -5
0 -10 -4 -10 -10z"/>
<path d="M11290 5810 c0 -5 5 -10 10 -10 6 0 10 5 10 10 0 6 -4 10 -10 10 -5
0 -10 -4 -10 -10z"/>
<path d="M11950 5810 c0 -5 5 -10 10 -10 6 0 10 5 10 10 0 6 -4 10 -10 10 -5
0 -10 -4 -10 -10z"/>
<path d="M12610 5810 c0 -5 5 -10 10 -10 6 0 10 5 10 10 0 6 -4 10 -10 10 -5
0 -10 -4 -10 -10z"/>
<path d="M1710 5150 c0 -5 5 -10 10 -10 6 0 10 5 10 10 0 6 -4 10 -10 10 -5 0
-10 -4 -10 -10z"/>
<path d="M2370 5150 c0 -5 5 -10 10 -10 6 0 10 5 10 10 0 6 -4 10 -10 10 -5 0
-10 -4 -10 -10z"/>
<path d="M3030 5150 c0 -5 5 -10 10 -10 6 0 10 5 10 10 0 6 -4 10 -10 10 -5 0
-10 -4 -10 -10z"/>
<path d="M3690 5150 c0 -5 5 -10 10 -10 6 0 10 5 10 10 0 6 -4 10 -10 10 -5 0
-10 -4 -10 -10z"/>
<path d="M4350 5150 c0 -5 5 -10 10 -10 6 0 10 5 10 10 0 6 -4 10 -10 10 -5 0
-10 -4 -10 -10z"/>
<path d="M5010 5150 c0 -5 5 -10 10 -10 6 0 10 5 10 10 0 6 -4 10 -10 10 -5 0
-10 -4 -10 -10z"/>
<path d="M8650 5150 c0 -5 5 -10 10 -10 6 0 10 5 10 10 0 6 -4 10 -10 10 -5 0
-10 -4 -10 -10z"/>
<path d="M9310 5150 c0 -5 5 -10 10 -10 6 0 10 5 10 10 0 6 -4 10 -10 10 -5 0
-10 -4 -10 -10z"/>
<path d="M9970 5150 c0 -5 5 -10 10 -10 6 0 10 5 10 10 0 6 -4 10 -10 10 -5 0
-10 -4 -10 -10z"/>
<path d="M10630 5150 c0 -5 5 -10 10 -10 6 0 10 5 10 10 0 6 -4 10 -10 10 -5
0 -10 -4 -10 -10z"/>
<path d="M11290 5150 c0 -5 5 -10 10 -10 6 0 10 5 10 10 0 6 -4 10 -10 10 -5
0 -10 -4 -10 -10z"/>
<path d="M11950 5150 c0 -5 5 -10 10 -10 6 0 10 5 10 10 0 6 -4 10 -10 10 -5
0 -10 -4 -10 -10z"/>
<path d="M12610 5150 c0 -5 5 -10 10 -10 6 0 10 5 10 10 0 6 -4 10 -10 10 -5
0 -10 -4 -10 -10z"/>
<path d="M1715 2840 c-3 -5 -1 -10 4 -10 6 0 11 5 11 10 0 6 -2 10 -4 10 -3 0
-8 -4 -11 -10z"/>
<path d="M2375 2840 c-3 -5 -1 -10 4 -10 6 0 11 5 11 10 0 6 -2 10 -4 10 -3 0
-8 -4 -11 -10z"/>
<path d="M3035 2840 c-3 -5 -1 -10 4 -10 6 0 11 5 11 10 0 6 -2 10 -4 10 -3 0
-8 -4 -11 -10z"/>
<path d="M3695 2840 c-3 -5 -1 -10 4 -10 6 0 11 5 11 10 0 6 -2 10 -4 10 -3 0
-8 -4 -11 -10z"/>
<path d="M4355 2840 c-3 -5 -1 -10 4 -10 6 0 11 5 11 10 0 6 -2 10 -4 10 -3 0
-8 -4 -11 -10z"/>
<path d="M5015 2840 c-3 -5 -1 -10 4 -10 6 0 11 5 11 10 0 6 -2 10 -4 10 -3 0
-8 -4 -11 -10z"/>
<path d="M8655 2840 c-3 -5 -1 -10 4 -10 6 0 11 5 11 10 0 6 -2 10 -4 10 -3 0
-8 -4 -11 -10z"/>
<path d="M9315 2840 c-3 -5 -1 -10 4 -10 6 0 11 5 11 10 0 6 -2 10 -4 10 -3 0
-8 -4 -11 -10z"/>
<path d="M9975 2840 c-3 -5 -1 -10 4 -10 6 0 11 5 11 10 0 6 -2 10 -4 10 -3 0
-8 -4 -11 -10z"/>
<path d="M10635 2840 c-3 -5 -1 -10 4 -10 6 0 11 5 11 10 0 6 -2 10 -4 10 -3
0 -8 -4 -11 -10z"/>
<path d="M11295 2840 c-3 -5 -1 -10 4 -10 6 0 11 5 11 10 0 6 -2 10 -4 10 -3
0 -8 -4 -11 -10z"/>
<path d="M11955 2840 c-3 -5 -1 -10 4 -10 6 0 11 5 11 10 0 6 -2 10 -4 10 -3
0 -8 -4 -11 -10z"/>
<path d="M12615 2840 c-3 -5 -1 -10 4 -10 6 0 11 5 11 10 0 6 -2 10 -4 10 -3
0 -8 -4 -11 -10z"/>
</g>
</svg>
