<?xml version="1.0" standalone="no"?>
<!DOCTYPE svg PUBLIC "-//W3C//DTD SVG 20010904//EN"
 "http://www.w3.org/TR/2001/REC-SVG-20010904/DTD/svg10.dtd">
<svg version="1.0" xmlns="http://www.w3.org/2000/svg"
 width="1280.000000pt" height="822.000000pt" viewBox="0 0 1280.000000 822.000000"
 preserveAspectRatio="xMidYMid meet">
<g transform="translate(0.000000,822.000000) scale(0.100000,-0.100000)"
fill="#0074cc" stroke="none">
<path d="M7225 8208 c-382 -50 -566 -90 -785 -173 -496 -188 -910 -493 -1235
-910 -43 -55 -81 -101 -84 -103 -4 -1 -56 14 -115 33 -570 187 -1206 114
-1725 -197 -650 -391 -1046 -1117 -1018 -1865 3 -79 1 -145 -3 -148 -5 -3 -60
-12 -122 -19 -531 -67 -1010 -295 -1390 -664 -311 -302 -526 -657 -644 -1066
-63 -217 -110 -555 -101 -720 33 -591 223 -1086 581 -1512 320 -382 784 -667
1282 -787 91 -23 177 -36 424 -67 121 -15 7758 -14 7884 1 331 39 567 89 766
162 405 148 738 361 1040 666 223 225 385 452 524 736 160 325 236 609 287
1070 24 225 -22 615 -111 925 -301 1057 -1211 1846 -2298 1991 -86 12 -162 23
-169 25 -6 1 -14 22 -17 46 -41 351 -85 545 -181 794 -217 560 -624 1050
-1137 1367 -341 211 -748 353 -1133 397 -55 6 -133 15 -173 20 -87 12 -250 11
-347 -2z"/>
</g>
</svg>
